<svg width="227" height="256" viewBox="0 0 227 256" fill="none" xmlns="http://www.w3.org/2000/svg">
<g clip-path="url(#clip0_390_84)">
<path d="M194.705 127.941C209.284 114.577 210.462 72.0622 210.059 71.3526C209.569 70.4822 172.285 51.6387 154.012 57.5931C149.725 38.2815 113.552 16.0146 112.762 16C111.738 15.9781 76.714 38.8521 72.742 57.6516C53.8766 51.7119 16.475 71.9305 16.0654 72.6255C15.5533 73.4886 17.8649 115.213 32.1584 128.059C17.5942 141.423 16.4457 184.004 16.87 184.742C17.3528 185.576 42.6993 201.099 55.9687 201.099C61.6744 201.099 67.3728 200.206 72.8664 198.414C77.1529 217.719 113.443 240.007 114.299 240.007C115.264 240.007 150.157 217.148 154.129 198.348C159.461 200.031 164.97 200.857 170.47 200.857C184.442 200.857 210.454 183.989 210.886 183.243C211.361 182.416 209.006 140.787 194.712 127.941H194.705ZM195.1 174.377C186.615 181.312 175.971 184.304 165.745 183.002C159.454 182.197 153.88 178.547 150.53 173.156L144.078 162.79C139.491 166.828 134.108 169.974 128.182 171.963L133.925 181.963C137.056 187.405 137.648 193.967 135.461 199.855C131.862 209.562 124.232 217.631 114.101 221.91C103.853 218.026 95.9306 210.308 91.9512 200.792C89.5007 194.94 89.8811 188.29 92.8656 182.702L98.6152 171.934C92.6973 169.937 87.3135 166.784 82.7343 162.739L76.9481 172.717C73.7954 178.152 68.4115 181.948 62.2157 183.002C52.0113 184.742 41.2143 182.168 32.4363 175.533C30.6734 164.721 33.4019 154.005 39.6489 145.805C43.4893 140.757 49.4437 137.758 55.7785 137.546L67.9653 137.144C67.3728 134.189 67.0582 131.131 67.0582 128.007C67.0582 124.884 67.3728 121.775 67.9726 118.798L56.4515 118.776C50.1679 118.761 44.1915 115.996 40.1829 111.161C33.5702 103.195 30.4028 92.5515 31.756 81.6375C40.2414 74.7029 50.8848 71.7038 61.1111 73.0131C67.402 73.8178 72.9761 77.468 76.3264 82.8518L82.7782 93.2172C87.3647 89.1793 92.7485 86.0338 98.6737 84.0442L92.9314 74.0446C89.8006 68.6022 89.2081 62.0406 91.3953 56.1521C94.9942 46.4451 102.624 38.3766 112.755 34.0973C123.003 37.9816 130.926 45.6989 134.905 55.2157C137.355 61.0677 136.975 67.7171 133.991 73.3057L128.241 84.0734C134.159 86.0704 139.543 89.2232 144.122 93.2684L149.908 83.2907C153.061 77.8557 158.445 74.0592 164.633 73.0058C174.837 71.2649 185.634 73.8471 194.412 80.4744C196.175 91.286 193.447 102.002 187.207 110.21C183.367 115.257 177.412 118.256 171.078 118.461L158.891 118.864C159.483 121.819 159.798 124.877 159.798 128C159.798 131.124 159.483 134.232 158.883 137.21L170.405 137.232C176.688 137.246 182.665 140.011 186.673 144.846C193.286 152.813 196.453 163.456 195.1 174.37V174.377Z" fill="#FF4000"/>
<path fill-rule="evenodd" clip-rule="evenodd" d="M88.7804 127.334C92.7012 125.212 97.6974 125.132 101.655 127.209C106.41 129.711 107.434 134.203 108.121 139.052C109.109 146.031 112.342 153.258 118.318 157.289V157.362L119.679 158.145C120.944 158.876 122.371 159.388 123.636 159.995C122.649 160.01 121.742 160.368 120.82 160.683C109.277 164.611 93.4766 158.744 86.0884 149.359C82.3432 144.597 80.8363 137.575 83.9159 132.096C85.0936 129.997 86.8053 128.402 88.7877 127.334H88.7804Z" fill="#FF4000"/>
<path fill-rule="evenodd" clip-rule="evenodd" d="M83.7436 118.6C82.3611 119.397 81.0956 120.319 79.9544 121.336C80.6421 120.721 80.9566 117.437 81.315 116.449C81.9075 114.818 82.6244 113.231 83.4583 111.709C85.1115 108.703 87.2256 105.945 89.7053 103.568C94.7381 98.7397 101.234 95.543 108.132 94.5262C112.543 93.8752 117.473 94.358 121.167 97.0499C125.6 100.276 127.129 106.26 125.359 111.373C123.581 116.508 118.6 120.319 113.113 120.319C110.78 120.319 108.541 119.704 106.574 118.563C106.508 118.527 106.384 118.454 106.215 118.388C99.4489 114.657 90.9416 114.438 83.729 118.593L83.7436 118.6Z" fill="#FF4000"/>
<path fill-rule="evenodd" clip-rule="evenodd" d="M146.905 128.006C146.905 125.124 146.568 122.264 145.873 119.565C145.032 116.288 143.693 113.135 141.909 110.253C141.009 108.797 139.999 107.415 138.895 106.105C138.244 105.337 135.654 103.494 135.479 102.623C135.786 104.116 135.947 105.659 135.947 107.239C135.947 115.505 131.558 122.732 124.996 126.734C124.879 126.821 124.74 126.909 124.587 127.004L124.565 127.019L124.543 127.034C117.893 131.466 115.779 140.259 121.31 146.579C125.304 151.144 132.341 152.497 137.563 149.264C144.535 144.948 146.89 135.687 146.897 127.999L146.905 128.006Z" fill="#FF4000"/>
</g>
<defs>
<clipPath id="clip0_390_84">
<rect width="194.937" height="224" fill="white" transform="translate(16 16)"/>
</clipPath>
</defs>
</svg>
